# xmcd
#
# Track frame offsets: 
#        150
#        16800
#        32308
#        46798
#        66083
#        79140
#        97645
#        113043
#        128573
#        147703
#        162660
#        177915
#        189785
#        201918
#        219240
#        231218
#
# Disc length: 3260 seconds
#
# Revision: 2
# Processed by: cddbd v1.5.2PL0 Copyright (c) Steve Scherf et al.
# Submitted via: ExactAudioCopy v0.99pb3
#
DISCID=c90cba10
DTITLE=Williams, Marion - Surely God Is Able
DYEAR=1900
DGENRE=blues
TTITLE0=The New You've Got To Move
TTITLE1=All Along the Highway
TTITLE2=Surely God Is Able
TTITLE3=Tramp This World By Myself
TTITLE4=Didn't It Rain
TTITLE5=He Never Left Me Alone
TTITLE6=My Life Will Be Sweeter
TTITLE7=Bad News, Bad Times
TTITLE8=Move On Up a Little Higher
TTITLE9=Sign of Judgment
TTITLE10=What a Friend
TTITLE11=Amazing Grace
TTITLE12=I Don't Know Why
TTITLE13=The Day Is Past And Gone
TTITLE14=Little Wooden Church
TTITLE15=Up Above My Head
EXTD=
EXTT0=
EXTT1=
EXTT2=
EXTT3=
EXTT4=
EXTT5=
EXTT6=
EXTT7=
EXTT8=
EXTT9=
EXTT10=
EXTT11=
EXTT12=
EXTT13=
EXTT14=
EXTT15=
PLAYORDER=
